<?xml version="1.0" standalone="no"?>
<!DOCTYPE svg PUBLIC "-//W3C//DTD SVG 20010904//EN"
 "http://www.w3.org/TR/2001/REC-SVG-20010904/DTD/svg10.dtd">
<svg version="1.0" xmlns="http://www.w3.org/2000/svg"
 width="3126.000000pt" height="2084.000000pt" viewBox="0 0 3126.000000 2084.000000"
 preserveAspectRatio="xMidYMid meet">

<g transform="translate(0.000000,2084.000000) scale(0.100000,-0.100000)"
fill="#000000" stroke="none">
<path d="M11673 14046 l-28 -24 -5 -644 -5 -643 -643 -5 c-557 -4 -644 -7
-652 -20 -6 -9 -10 -525 -10 -1345 0 -1188 2 -1333 16 -1353 13 -19 24 -22 75
-22 l59 0 0 -55 0 -55 -430 0 c-265 0 -430 4 -430 9 0 6 9 58 21 117 58 301
161 491 289 534 46 15 55 23 55 42 0 55 -108 22 -186 -57 -109 -111 -188 -315
-234 -607 l-6 -36 -177 -4 c-177 -3 -178 -3 -244 -36 -77 -38 -130 -92 -167
-171 -22 -48 -26 -69 -26 -151 0 -85 3 -101 30 -153 37 -75 117 -149 193 -178
48 -19 81 -23 218 -27 l162 -4 7 -77 c13 -144 36 -296 61 -394 l24 -98 -721
-2767 c-396 -1522 -722 -2775 -725 -2784 -5 -17 5 -18 119 -18 l125 0 12 48
c6 26 315 1211 686 2635 371 1423 674 2589 674 2592 0 3 20 -10 44 -29 67 -51
135 -71 241 -71 102 1 186 24 297 82 130 68 177 126 204 252 19 89 17 171 -6
396 -11 104 -20 200 -20 212 l0 23 277 2 278 3 11 130 c26 280 71 439 156 548
l30 37 -351 0 -351 0 -5 -22 c-20 -84 -37 -263 -42 -441 -3 -114 -7 -206 -8
-205 -2 2 -8 59 -14 128 -16 172 -16 381 -1 464 10 58 10 70 -1 76 -10 6 -13
23 -11 59 3 45 7 51 26 51 19 0 24 13 50 113 116 460 360 833 686 1052 94 63
95 64 124 137 118 296 300 607 469 800 108 122 281 240 405 274 61 17 63 17
90 -3 43 -31 55 -82 49 -208 -5 -131 -16 -161 -96 -265 -277 -360 -507 -814
-571 -1130 -22 -110 -27 -278 -9 -360 9 -42 17 -55 47 -75 41 -26 160 -69 400
-143 l162 -50 0 454 0 454 983 1 c540 0 1024 4 1075 7 86 7 96 9 118 35 l24
28 -2 1456 -3 1455 -28 24 -28 24 -1404 0 -1404 0 -28 -24z m1057 -851 l0 -95
-305 0 -305 0 0 95 0 95 305 0 305 0 0 -95z m-247 -673 c39 -36 64 -88 83
-169 22 -95 14 -274 -16 -361 -26 -74 -84 -142 -121 -142 l-24 0 28 25 c135
126 135 525 -1 653 l-37 35 30 -7 c17 -4 43 -19 58 -34z m-312 -1112 c24 -13
26 -81 3 -104 -36 -37 -114 -5 -114 47 0 55 58 85 111 57z m687 -2 c7 -7 12
-31 12 -55 0 -32 -5 -45 -19 -53 -34 -18 -78 -12 -95 12 -36 50 -7 108 53 108
20 0 42 -5 49 -12z m204 -5 c22 -20 23 -70 1 -95 -20 -22 -76 -24 -97 -2 -19
18 -21 85 -4 102 17 17 78 15 100 -5z m206 5 c7 -7 12 -31 12 -55 0 -32 -5
-45 -19 -53 -34 -18 -78 -12 -95 12 -36 50 -7 108 53 108 20 0 42 -5 49 -12z
m-3534 -2460 c-30 -117 -58 -220 -61 -228 -12 -30 -37 114 -68 398 l-5 42 94
0 94 0 -54 -212z m780 160 c34 -310 38 -362 33 -467 -7 -179 -37 -236 -163
-306 -160 -90 -325 -111 -439 -56 -33 16 -72 42 -87 58 l-28 29 100 384 c55
212 102 390 105 397 3 10 59 13 239 13 l235 0 5 -52z"/>
<path d="M17464 13541 c-54 -14 -135 -64 -171 -106 -49 -57 -91 -143 -112
-232 l-18 -76 -46 -12 c-69 -17 -118 -55 -152 -116 -28 -50 -30 -62 -30 -154
0 -87 3 -107 26 -156 47 -99 118 -153 302 -227 23 -10 27 -17 27 -52 0 -100
79 -251 155 -295 45 -27 111 -35 102 -12 -67 156 -125 332 -115 343 3 2 47 15
99 28 52 13 173 54 269 91 96 37 184 68 195 68 12 1 32 9 46 18 24 16 27 16
50 -2 20 -16 21 -20 10 -28 -10 -7 -2 -8 26 -4 27 3 43 1 48 -7 5 -8 4 -11 -3
-6 -6 3 -14 2 -17 -4 -4 -6 -3 -9 2 -8 14 4 53 -26 53 -42 0 -27 56 -135 90
-174 18 -20 45 -43 60 -51 23 -12 32 -32 65 -142 21 -70 41 -131 45 -136 14
-16 200 263 200 301 0 10 -5 10 -21 1 -56 -29 -154 16 -207 97 -59 88 -75 147
-76 269 -1 101 1 115 27 167 71 144 209 142 303 -6 l18 -29 -32 17 c-26 13
-39 14 -79 5 -110 -25 -138 -62 -137 -179 0 -62 5 -84 27 -128 38 -72 76 -95
145 -87 64 6 107 27 123 58 7 12 16 63 20 112 5 50 13 119 18 155 15 91 13
281 -3 370 -30 163 -88 261 -185 309 -153 78 -305 80 -412 5 l-39 -27 43 -27
c106 -67 185 -196 218 -353 10 -50 17 -92 16 -92 -1 -1 -31 -7 -66 -13 -35 -6
-71 -18 -81 -27 -24 -21 -27 -19 -35 23 -14 77 -66 219 -100 277 -77 128 -149
175 -270 175 -74 0 -77 1 -128 41 -29 23 -72 50 -97 61 -50 21 -149 31 -196
19z m733 -940 c0 -11 -5 -18 -9 -15 -4 3 -5 11 -1 19 7 21 12 19 10 -4z"/>
<path d="M18062 12648 c2 -8 -5 -12 -17 -10 -16 2 -17 1 -5 -7 8 -6 18 -11 21
-11 12 0 18 29 8 35 -5 4 -8 1 -7 -7z"/>
<path d="M9642 12617 c-46 -14 -117 -80 -141 -130 -27 -56 -28 -156 -2 -212
23 -50 84 -109 133 -130 21 -8 65 -15 98 -15 74 0 123 19 174 68 51 49 76 104
76 171 0 74 -17 124 -59 172 -65 77 -180 108 -279 76z"/>
<path d="M9610 12070 c-11 -11 -20 -27 -20 -35 0 -8 9 -24 20 -35 17 -17 33
-20 118 -20 110 0 135 10 135 55 0 45 -25 55 -135 55 -85 0 -101 -3 -118 -20z"/>
<path d="M9628 11939 c-32 -18 -41 -48 -23 -75 15 -23 20 -24 125 -24 105 0
110 1 125 24 19 28 9 58 -25 76 -24 13 -180 13 -202 -1z"/>
<path d="M18551 11690 c-16 -62 -79 -159 -129 -198 -74 -59 -141 -85 -216 -86
-69 -1 -70 -1 -90 33 -11 19 -36 74 -56 122 l-37 89 -94 -46 c-133 -64 -136
-67 -719 -488 -724 -524 -805 -585 -789 -590 8 -2 41 -9 74 -16 33 -7 149 -46
259 -87 109 -41 239 -83 290 -94 112 -24 478 -146 936 -312 190 -69 352 -128
360 -131 10 -4 22 4 34 26 83 145 201 338 207 338 4 0 11 -9 14 -20 4 -12 29
-51 57 -87 40 -52 48 -67 37 -75 -11 -7 -9 -8 4 -4 25 8 44 -4 26 -15 -10 -6
-7 -9 11 -9 14 -1 44 -18 69 -40 28 -24 38 -38 27 -36 -10 1 -23 10 -28 19 -5
10 -14 15 -19 11 -5 -3 -8 -2 -7 3 2 4 -1 8 -7 8 -5 0 -9 -3 -7 -7 1 -5 -2 -8
-8 -8 -5 0 -10 -4 -10 -10 0 -5 6 -7 13 -5 9 4 11 -16 9 -85 -2 -49 -8 -90
-13 -90 -5 0 -9 -36 -9 -80 0 -64 -3 -80 -15 -81 -51 -4 -50 -5 -53 39 -2 23
-7 42 -13 42 -12 0 -11 -81 1 -100 5 -8 10 -10 10 -4 0 5 11 10 24 10 13 0 23
-5 22 -13 -3 -21 -17 -28 -25 -14 -6 9 -11 10 -15 2 -4 -6 -2 -11 4 -11 6 0 9
-4 5 -9 -3 -5 4 -16 15 -24 11 -8 22 -24 25 -35 5 -29 36 -73 46 -66 5 3 7 -1
4 -8 -3 -7 21 -42 52 -77 l57 -64 -84 -80 c-157 -148 -249 -207 -320 -207 -68
0 -205 76 -591 331 l-226 150 -12 72 c-14 90 -52 158 -121 220 -90 81 -119 87
-429 87 l-268 0 -10 35 c-11 34 -10 35 15 35 15 0 45 9 67 18 l39 18 -94 59
c-169 104 -177 107 -277 105 -48 -1 -98 -2 -110 -2 -13 0 -23 -4 -23 -9 0 -5
-9 -9 -20 -9 -17 0 -20 -7 -20 -51 0 -43 -3 -50 -16 -45 -9 3 -20 6 -24 6 -5
0 -11 19 -13 43 l-4 42 -1 -42 c-2 -43 -17 -58 -25 -25 -4 16 -5 16 -6 0 -1
-22 31 -22 -351 2 -279 18 -433 20 -1350 20 l-1035 0 -23 -42 c-12 -23 -21
-43 -19 -45 2 -2 386 1 853 6 467 4 855 6 862 3 7 -2 12 -14 10 -26 l-3 -21
-875 -8 -875 -8 -22 -26 -21 -26 -1017 -5 -1017 -5 -45 -31 c-110 -75 -169
-255 -198 -603 l-7 -82 1518 -1 c835 0 1521 -3 1524 -8 4 -4 151 -564 328
-1246 l322 -1238 -69 -132 c-369 -701 -1103 -2239 -1146 -2403 -18 -70 -29
-88 -69 -112 -86 -53 -238 -62 -513 -30 -196 23 -283 20 -367 -12 -28 -10 -63
-29 -78 -41 -27 -23 -28 -23 -11 -58 24 -51 212 -234 330 -323 297 -223 831
-537 915 -537 18 0 36 12 60 39 57 67 179 318 289 593 22 55 53 119 68 142 16
22 162 264 326 536 386 643 606 994 615 983 4 -4 105 -385 224 -845 170 -655
215 -841 207 -856 -24 -45 -83 -81 -227 -137 -359 -139 -536 -270 -551 -409
l-6 -46 783 0 783 0 -6 62 c-4 35 -16 195 -28 356 l-21 293 26 92 c50 177 118
487 356 1617 61 289 127 601 149 694 34 150 37 172 25 195 -8 14 -14 46 -14
71 0 71 56 378 75 406 18 29 72 64 97 64 9 0 19 4 22 8 3 5 -23 118 -58 253
-35 134 -103 397 -151 584 -49 187 -92 344 -96 349 -12 13 -205 -39 -335 -91
-213 -85 -689 -366 -974 -576 -170 -125 -344 -284 -433 -394 -22 -28 -27 -30
-31 -15 -15 48 -565 2166 -563 2168 1 2 497 4 1102 6 605 1 1264 5 1465 8 358
5 366 5 408 28 24 13 47 21 50 18 9 -10 -15 -169 -58 -384 -21 -108 -42 -219
-45 -247 -12 -93 10 -85 -231 -85 -118 0 -214 -3 -214 -7 0 -5 15 -64 34 -133
l33 -125 191 -3 c182 -2 192 -3 203 -23 6 -11 9 -22 7 -23 -2 -1 -57 -10 -123
-19 -200 -28 -245 -38 -245 -53 0 -7 13 -62 29 -121 16 -60 84 -319 151 -578
66 -258 126 -485 131 -502 l11 -33 604 0 604 0 0 675 0 675 65 0 65 0 0 -675
0 -676 64 3 64 3 367 415 c203 228 397 447 432 487 l65 72 -23 68 c-12 37 -37
101 -55 140 -30 68 -32 75 -18 100 7 16 14 36 14 46 0 16 31 17 505 17 558 0
557 0 595 62 27 45 27 117 -1 152 -45 57 -34 56 -589 56 -479 0 -510 1 -510
18 0 9 -13 126 -30 258 -23 192 -33 346 -50 752 l-21 511 35 94 c86 230 112
370 102 546 -17 297 -97 535 -225 668 -128 133 -254 213 -437 276 -105 37
-332 101 -394 112 l-36 6 -13 -51z m354 -1769 c3 -5 2 -12 -3 -15 -5 -3 -9 1
-9 9 0 17 3 19 12 6z m-195 -351 c0 -5 -2 -10 -4 -10 -3 0 -8 5 -11 10 -3 6
-1 10 4 10 6 0 11 -4 11 -10z m-2986 -3537 c-13 -61 -51 -940 -57 -1326 l-2
-137 -134 515 -135 516 73 107 c96 140 244 341 253 342 3 0 4 -8 2 -17z"/>
<path d="M11265 11058 c-266 -194 -481 -544 -598 -975 l-26 -93 197 0 198 0
37 168 c58 256 121 485 196 711 38 113 72 214 76 224 11 27 -5 20 -80 -35z"/>
<path d="M9397 10822 c-39 -43 6 -108 58 -84 48 22 28 102 -25 102 -9 0 -24
-8 -33 -18z"/>
<path d="M9580 10820 c-11 -11 -20 -27 -20 -35 0 -8 9 -24 20 -35 11 -11 27
-20 35 -20 21 0 55 36 55 59 0 20 -35 51 -57 51 -7 0 -22 -9 -33 -20z"/>
<path d="M9767 10822 c-24 -27 -21 -59 8 -78 23 -15 27 -15 50 0 30 20 33 56
7 79 -24 22 -45 21 -65 -1z"/>
<path d="M9950 10820 c-11 -11 -20 -27 -20 -35 0 -8 9 -24 20 -35 11 -11 27
-20 35 -20 8 0 24 9 35 20 11 11 20 27 20 35 0 8 -9 24 -20 35 -11 11 -27 20
-35 20 -8 0 -24 -9 -35 -20z"/>
<path d="M16398 10143 c6 -2 18 -2 25 0 6 3 1 5 -13 5 -14 0 -19 -2 -12 -5z"/>
<path d="M18680 9878 c0 -89 3 -159 6 -156 10 11 13 318 3 318 -5 0 -9 -69 -9
-162z"/>
<path d="M18722 9980 c0 -14 2 -19 5 -12 2 6 2 18 0 25 -3 6 -5 1 -5 -13z"/>
<path d="M15773 8480 c-45 -27 -66 -64 -66 -116 0 -53 24 -91 74 -116 31 -16
77 -18 513 -18 431 0 478 2 472 16 -3 8 -15 52 -27 97 -11 45 -25 99 -30 120
l-10 37 -447 0 c-425 0 -449 -1 -479 -20z"/>
<path d="M19694 7650 c-43 -48 -138 -154 -324 -365 -128 -145 -141 -160 -264
-297 -47 -53 -86 -99 -86 -102 0 -3 100 -6 223 -6 251 0 275 6 336 75 38 43
57 85 111 242 54 157 73 316 52 453 l-7 44 -41 -44z"/>
<path d="M18543 6750 c-70 -40 -105 -99 -106 -178 -1 -123 86 -212 208 -212
148 0 247 135 200 275 -44 130 -183 183 -302 115z"/>
<path d="M18380 4927 c0 -1456 3 -1380 -66 -1485 l-35 -54 48 -184 48 -184
345 0 c328 0 347 1 378 20 63 38 77 125 31 184 -29 37 -46 44 -138 55 -141 18
-241 86 -304 206 l-32 60 -3 1348 -2 1347 -135 0 -135 0 0 -1313z"/>
<path d="M17965 3269 c-61 -19 -95 -65 -95 -127 0 -38 6 -50 39 -83 l39 -39
90 0 91 0 -24 88 c-13 48 -29 106 -35 130 -10 39 -13 42 -43 41 -18 0 -45 -5
-62 -10z"/>
<path d="M16220 1675 c-11 -13 -11 -21 -2 -36 18 -29 15 -36 -23 -43 -19 -4
-37 -11 -40 -16 -14 -22 7 -26 57 -13 30 8 72 12 96 9 37 -5 43 -3 40 12 -2
12 -15 18 -45 20 -42 3 -42 3 -40 40 2 41 -20 55 -43 27z"/>
<path d="M16445 1550 c-4 -6 15 -34 42 -63 28 -29 52 -59 55 -67 4 -11 8 -12
18 -4 9 9 8 18 -4 42 -20 39 -20 39 4 45 27 7 27 47 0 47 -10 0 -23 -7 -28
-17 -10 -17 -22 -14 -59 12 -15 11 -23 13 -28 5z"/>
<path d="M16218 1536 c-112 -31 -188 -128 -188 -241 0 -24 6 -48 13 -54 8 -6
47 -16 89 -22 122 -18 289 10 376 63 31 19 33 24 27 56 -27 144 -176 237 -317
198z m35 -137 c58 -71 -48 -164 -113 -99 -48 48 -2 139 63 126 18 -3 40 -16
50 -27z m186 -3 c8 -9 11 -26 7 -41 -16 -65 -111 -48 -104 18 5 54 60 67 97
23z"/>
<path d="M16810 1521 c-25 -24 -30 -38 -30 -75 0 -44 -1 -46 -30 -46 -28 0
-30 -3 -30 -35 0 -32 2 -35 30 -35 l30 0 0 -115 0 -115 40 0 40 0 0 115 0 115
45 0 c45 0 45 0 45 35 0 35 0 35 -45 35 -43 0 -45 1 -45 29 0 38 22 55 61 47
30 -6 30 -5 27 32 l-3 37 -53 3 c-47 3 -56 0 -82 -27z"/>
<path d="M18176 1534 c-19 -18 -21 -55 -4 -72 7 -7 24 -12 38 -12 34 0 50 17
50 52 0 43 -53 64 -84 32z"/>
<path d="M18310 1320 l0 -220 40 0 40 0 0 58 1 57 52 -57 c52 -57 53 -58 107
-58 l54 0 -55 58 c-30 31 -63 67 -74 80 l-19 23 69 69 69 70 -49 0 c-46 0 -53
-3 -102 -52 l-53 -52 0 122 0 122 -40 0 -40 0 0 -220z"/>
<path d="M12900 1433 c0 -72 -1 -75 -18 -60 -51 46 -131 40 -176 -13 -51 -61
-47 -171 9 -227 28 -28 40 -33 83 -33 35 0 57 6 76 21 l26 20 0 -21 c0 -16 5
-21 23 -18 22 3 22 4 25 206 l2 202 -25 0 c-25 0 -25 -1 -25 -77z m-26 -94
c24 -19 26 -27 26 -89 0 -62 -2 -70 -26 -89 -36 -28 -86 -27 -121 3 -25 22
-28 31 -28 84 0 50 4 65 24 86 31 33 87 35 125 5z"/>
<path d="M14940 1435 l0 -76 -31 23 c-39 29 -98 30 -136 2 -80 -59 -84 -202
-8 -262 37 -30 112 -30 149 -1 l26 20 0 -21 c0 -16 5 -21 23 -18 22 3 22 4 25
206 l2 202 -25 0 c-25 0 -25 -1 -25 -75z m-26 -96 c24 -19 26 -27 26 -89 0
-62 -2 -70 -26 -89 -36 -28 -86 -27 -120 2 -22 19 -28 34 -32 78 -4 49 -1 59
23 87 33 39 87 44 129 11z"/>
<path d="M15202 1308 c3 -202 3 -203 26 -206 17 -3 22 2 22 18 l0 21 26 -20
c19 -15 41 -21 74 -21 81 0 130 57 130 150 0 73 -28 123 -81 144 -48 19 -86
14 -124 -15 l-25 -20 0 75 c0 75 0 76 -25 76 l-25 0 2 -202z m202 21 c20 -24
26 -41 26 -81 0 -41 -5 -54 -29 -79 -36 -36 -86 -39 -125 -8 -24 19 -26 27
-26 89 0 62 2 70 26 89 41 33 96 28 128 -10z"/>
<path d="M16031 1483 c-20 -24 -23 -25 -46 -13 -19 10 -28 11 -37 2 -16 -16
-2 -42 23 -42 21 0 22 -14 3 -64 -4 -11 0 -16 14 -16 13 0 21 9 25 28 3 15 19
47 36 72 28 42 31 60 11 60 -5 0 -18 -12 -29 -27z"/>
<path d="M13616 1484 c-9 -22 17 -49 39 -40 10 3 15 15 13 28 -4 29 -42 37
-52 12z"/>
<path d="M13120 1403 c-35 -7 -78 -40 -95 -73 -8 -16 -15 -53 -15 -82 0 -96
53 -148 150 -148 55 0 110 22 110 45 0 23 -18 27 -45 9 -14 -9 -44 -17 -67
-17 -34 0 -47 6 -70 32 -15 17 -28 40 -28 51 0 19 7 20 115 20 l115 0 0 33 c0
37 -29 90 -62 110 -28 18 -74 26 -108 20z m96 -66 c12 -12 25 -32 29 -44 6
-23 5 -23 -89 -23 -85 0 -96 2 -96 18 0 24 28 62 54 72 31 14 78 3 102 -23z"/>
<path d="M13415 1404 c-60 -14 -93 -61 -76 -107 13 -33 28 -43 99 -62 72 -20
94 -45 67 -75 -27 -29 -61 -33 -111 -10 -47 20 -64 19 -64 -3 0 -40 131 -62
189 -32 32 16 41 33 41 76 0 38 -29 65 -82 79 -95 24 -119 49 -79 82 29 23 57
23 103 -1 33 -16 38 -17 43 -2 7 18 -27 51 -54 51 -9 0 -25 2 -36 4 -11 2 -29
2 -40 0z"/>
<path d="M13810 1397 c-20 -7 -44 -27 -58 -47 -21 -30 -23 -44 -20 -108 3 -66
6 -75 36 -105 28 -28 39 -32 86 -32 39 0 60 5 75 19 29 26 37 14 22 -34 -20
-66 -83 -87 -154 -51 -36 19 -38 19 -47 0 -9 -15 -5 -21 18 -33 73 -38 162
-27 206 25 26 30 26 33 26 200 0 162 -1 169 -20 169 -14 0 -20 -7 -20 -21 0
-20 0 -20 -27 -1 -38 27 -81 33 -123 19z m124 -58 c23 -18 26 -27 26 -84 0
-58 -2 -65 -31 -89 -55 -46 -125 -24 -149 49 -14 43 2 108 33 130 31 22 89 19
121 -6z"/>
<path d="M14171 1390 c-52 -24 -51 -24 -51 -5 0 8 -9 15 -20 15 -19 0 -20 -7
-20 -150 0 -143 1 -150 20 -150 19 0 20 7 20 109 0 107 1 110 27 131 19 15 38
20 67 18 56 -4 66 -28 66 -155 0 -96 1 -103 20 -103 19 0 20 7 20 126 0 69 -4
134 -10 144 -9 17 -59 40 -84 40 -6 0 -31 -9 -55 -20z"/>
<path d="M14485 1399 c-111 -32 -140 -187 -50 -269 23 -22 36 -25 100 -25 58
0 77 4 94 19 16 14 18 22 10 32 -9 11 -15 11 -32 0 -37 -23 -75 -27 -111 -12
-35 15 -72 68 -61 86 3 6 57 10 121 10 129 0 130 0 98 80 -27 66 -99 100 -169
79z m85 -44 c31 -16 50 -43 50 -69 0 -13 -15 -16 -95 -16 -110 0 -118 9 -61
66 37 37 62 42 106 19z"/>
<path d="M17088 1394 c-16 -8 -28 -10 -28 -4 0 5 -18 10 -40 10 l-40 0 0 -150
0 -150 40 0 40 0 0 95 c0 82 3 98 20 115 11 11 31 20 44 20 29 0 73 59 53 72
-19 12 -60 9 -89 -8z"/>
<path d="M17275 1403 c-87 -24 -131 -139 -88 -230 38 -80 170 -106 248 -49 20
14 20 15 -3 39 -22 24 -24 24 -65 9 -37 -13 -46 -13 -72 -1 -16 8 -31 22 -33
31 -3 15 9 18 100 20 l103 3 -2 43 c-2 47 -30 100 -63 120 -24 14 -96 23 -125
15z m83 -79 c41 -29 28 -44 -38 -44 -46 0 -60 3 -60 14 0 17 38 46 60 46 9 0
26 -7 38 -16z"/>
<path d="M17595 1403 c-88 -22 -134 -144 -87 -233 20 -38 89 -80 132 -80 35 0
92 17 115 34 20 14 20 15 -3 39 -22 23 -24 24 -65 9 -49 -17 -89 -6 -107 28
-10 20 -8 20 94 20 77 0 105 3 109 13 8 21 -8 90 -27 119 -28 42 -101 66 -161
51z m85 -83 c33 -33 24 -40 -45 -40 -62 0 -65 1 -55 20 22 42 69 51 100 20z"/>
<path d="M17935 1395 c-19 -10 -31 -12 -33 -6 -2 6 -21 11 -43 11 l-39 0 0
-210 0 -210 40 0 40 0 0 70 c0 39 2 70 3 70 2 0 18 -7 36 -16 59 -30 143 2
176 66 22 42 19 128 -5 167 -38 63 -117 89 -175 58z m94 -91 c28 -36 27 -79
-4 -109 -49 -49 -125 -17 -125 54 0 74 85 110 129 55z"/>
<path d="M13620 1249 c0 -150 0 -150 23 -147 22 3 22 6 25 151 l3 147 -26 0
-25 0 0 -151z"/>
<path d="M15500 1395 c0 -3 27 -71 60 -152 l60 -146 -18 -31 c-11 -20 -27 -32
-44 -34 -15 -2 -28 -11 -31 -22 -9 -36 70 -35 100 1 10 13 163 372 163 384 0
3 -11 5 -24 5 -21 0 -29 -13 -65 -102 -56 -138 -56 -139 -73 -97 -83 203 -81
199 -105 199 -13 0 -23 -2 -23 -5z"/>
<path d="M18170 1250 l0 -150 40 0 40 0 0 150 0 150 -40 0 -40 0 0 -150z"/>
<path d="M16471 1232 c-83 -38 -224 -58 -324 -45 -45 5 -84 8 -86 6 -3 -2 16
-23 42 -48 126 -121 329 -87 409 68 10 22 18 40 16 42 -2 1 -27 -9 -57 -23z"/>
</g>
</svg>
